<svg width="620" height="664" viewBox="0 0 620 664" fill="none" xmlns="http://www.w3.org/2000/svg">
<path d="M293.377 328.025L529.358 63.8557" stroke="black" stroke-width="5" stroke-miterlimit="10"/>
<path d="M379.024 361.995L553.209 40.7273" stroke="black" stroke-width="5" stroke-miterlimit="10"/>
<path d="M531.888 321.159C531.888 387.82 477.849 441.86 411.187 441.86C344.525 441.86 290.486 387.82 290.486 321.159C290.486 254.498 344.525 200.458 411.187 200.458C477.849 200.458 531.888 254.498 531.888 321.159Z" fill="#FFA20A"/>
<path d="M55.9495 234.789L427.81 381.148" stroke="black" stroke-width="5" stroke-miterlimit="10"/>
<path d="M54.5042 235.15L298.436 140.468" stroke="black" stroke-width="5" stroke-miterlimit="10"/>
<path d="M88.4739 248.16L326.624 141.552" stroke="black" stroke-width="5" stroke-miterlimit="10"/>
<path d="M124.612 261.169L361.678 135.77" stroke="black" stroke-width="5" stroke-miterlimit="10"/>
<path d="M159.304 275.625L400.345 127.097" stroke="black" stroke-width="5" stroke-miterlimit="10"/>
<path d="M189.299 287.55L435.038 116.617" stroke="black" stroke-width="5" stroke-miterlimit="10"/>
<path d="M222.907 300.56L474.067 99.271" stroke="black" stroke-width="5" stroke-miterlimit="10"/>
<path d="M259.407 314.654L508.759 76.504" stroke="black" stroke-width="5" stroke-miterlimit="10"/>
<path d="M330.96 342.841L541.645 53.737" stroke="black" stroke-width="5" stroke-miterlimit="10"/>
<path d="M427.81 381.148L565.496 21.2128" stroke="black" stroke-width="5" stroke-miterlimit="10"/>
<path d="M54.5042 235.15V354.406" stroke="black" stroke-width="5" stroke-miterlimit="10"/>
<path d="M88.4739 248.16V381.148" stroke="black" stroke-width="5" stroke-miterlimit="10"/>
<path d="M124.612 261.169V408.613" stroke="black" stroke-width="5" stroke-miterlimit="10"/>
<path d="M159.304 275.625V435.355" stroke="black" stroke-width="5" stroke-miterlimit="10"/>
<path d="M189.299 287.55V459.206" stroke="black" stroke-width="5" stroke-miterlimit="10"/>
<path d="M222.907 300.56V485.948" stroke="black" stroke-width="5" stroke-miterlimit="10"/>
<path d="M259.407 314.654V513.413" stroke="black" stroke-width="5" stroke-miterlimit="10"/>
<path d="M293.377 328.025V539.071" stroke="black" stroke-width="5" stroke-miterlimit="10"/>
<path d="M330.96 342.841V567.982" stroke="black" stroke-width="5" stroke-miterlimit="10"/>
<path d="M427.81 381.148V642.787" stroke="black" stroke-width="5" stroke-miterlimit="10"/>
<path d="M379.024 361.995V605.204" stroke="black" stroke-width="5" stroke-miterlimit="10"/>
<style>
    @media (prefers-color-scheme: dark) {
        path[stroke="black"] {
            stroke: white;
        }
    }
</style>
</svg>
