<svg width="149" height="149" viewBox="0 0 149 149" fill="none" xmlns="http://www.w3.org/2000/svg">
<path d="M15.6473 17.9374L28.5549 69.5678C28.5549 69.5678 30.6002 37.2988 44.6895 37.2988C58.7787 37.2988 60.824 69.5678 60.824 69.5678L73.7316 17.9374" stroke="#FF14B1" stroke-width="10"/>
<path class="black" d="M128.255 25.4985C118.173 15.417 101.828 15.417 91.7465 25.4985C81.6651 35.5799 81.6651 51.9252 91.7465 62.0067C101.828 72.0882 118.173 72.0882 128.255 62.0067" stroke="black" stroke-width="10"/>
<path d="M137.605 16.1482L129.362 24.3912L90.6391 63.114L68.0508 85.7023" stroke="#FF14B1" stroke-width="10"/>
<path d="M64.9104 134.681V105.61C64.9104 98.9742 60.6522 85.7023 43.6191 85.7023C26.5861 85.7023 22.3279 98.9742 22.3279 105.61V134.681L22.3279 79.6382" class="black" stroke="black" stroke-width="10"/>
<path d="M82.8354 134.681V105.61C82.8354 98.9743 87.3955 85.7023 105.636 85.7023C123.876 85.7023 128.436 98.9743 128.436 105.61" class="black" stroke="black" stroke-width="10"/>
<circle cx="116.5" cy="122.138" r="8.5" stroke="#FF14B1" stroke-width="10"/>
<style>
    .black { stroke: #000000; }
    @media (prefers-color-scheme: dark) {
        .black { stroke: #FFFFFF; }
    }
</style>
</svg>
